<mxfile host="65bd71144e">
    <diagram name="ページ1" id="UWY-Ux4K15ZqQhnwbqFO">
        <mxGraphModel dx="816" dy="419" grid="1" gridSize="10" guides="1" tooltips="1" connect="1" arrows="1" fold="1" page="1" pageScale="1" pageWidth="1169" pageHeight="827" math="0" shadow="0">
            <root>
                <mxCell id="0"/>
                <mxCell id="1" parent="0"/>
                <mxCell id="shYAM1ni_3eM_hc4Qe-U-1" value="倉庫業者&lt;div&gt;アカウント管理者&lt;/div&gt;&lt;div&gt;カスタマーサポーター&lt;/div&gt;" style="shape=umlActor;verticalLabelPosition=bottom;verticalAlign=top;html=1;" parent="1" vertex="1">
                    <mxGeometry x="100" y="120" width="30" height="60" as="geometry"/>
                </mxCell>
                <mxCell id="shYAM1ni_3eM_hc4Qe-U-6" value="メニュー画面" style="shape=umlBoundary;whiteSpace=wrap;html=1;" parent="1" vertex="1">
                    <mxGeometry x="230" y="110" width="100" height="80" as="geometry"/>
                </mxCell>
                <mxCell id="shYAM1ni_3eM_hc4Qe-U-8" value="注文履歴確認画面" style="shape=umlBoundary;whiteSpace=wrap;html=1;" parent="1" vertex="1">
                    <mxGeometry x="530" y="40" width="100" height="80" as="geometry"/>
                </mxCell>
                <mxCell id="shYAM1ni_3eM_hc4Qe-U-12" value="" style="endArrow=open;endFill=1;endSize=12;html=1;rounded=0;exitX=0.357;exitY=0.917;exitDx=0;exitDy=0;exitPerimeter=0;entryX=0.886;entryY=0.3;entryDx=0;entryDy=0;entryPerimeter=0;" parent="1" source="shYAM1ni_3eM_hc4Qe-U-8" target="13" edge="1">
                    <mxGeometry width="160" relative="1" as="geometry">
                        <mxPoint x="450" y="220" as="sourcePoint"/>
                        <mxPoint x="525.7" y="238" as="targetPoint"/>
                    </mxGeometry>
                </mxCell>
                <mxCell id="shYAM1ni_3eM_hc4Qe-U-13" value="履歴がない場合" style="text;html=1;align=center;verticalAlign=middle;resizable=0;points=[];autosize=1;strokeColor=none;fillColor=none;" parent="1" vertex="1">
                    <mxGeometry x="560" y="130" width="110" height="30" as="geometry"/>
                </mxCell>
                <mxCell id="shYAM1ni_3eM_hc4Qe-U-15" value="検索欄に条件を入力" style="ellipse;shape=umlControl;whiteSpace=wrap;html=1;" parent="1" vertex="1">
                    <mxGeometry x="710" y="110" width="70" height="80" as="geometry"/>
                </mxCell>
                <mxCell id="shYAM1ni_3eM_hc4Qe-U-16" value="" style="endArrow=open;endFill=1;endSize=12;html=1;rounded=0;exitX=0.997;exitY=0.542;exitDx=0;exitDy=0;exitPerimeter=0;entryX=0.043;entryY=0.492;entryDx=0;entryDy=0;entryPerimeter=0;" parent="1" source="shYAM1ni_3eM_hc4Qe-U-8" target="shYAM1ni_3eM_hc4Qe-U-15" edge="1">
                    <mxGeometry width="160" relative="1" as="geometry">
                        <mxPoint x="470" y="200" as="sourcePoint"/>
                        <mxPoint x="630" y="200" as="targetPoint"/>
                    </mxGeometry>
                </mxCell>
                <mxCell id="shYAM1ni_3eM_hc4Qe-U-17" value="条件の合致した画面" style="shape=umlBoundary;whiteSpace=wrap;html=1;" parent="1" vertex="1">
                    <mxGeometry x="660" y="280" width="100" height="80" as="geometry"/>
                </mxCell>
                <mxCell id="shYAM1ni_3eM_hc4Qe-U-18" value="" style="endArrow=open;endFill=1;endSize=12;html=1;rounded=0;exitX=0.452;exitY=1.008;exitDx=0;exitDy=0;exitPerimeter=0;entryX=0.557;entryY=0.033;entryDx=0;entryDy=0;entryPerimeter=0;" parent="1" source="shYAM1ni_3eM_hc4Qe-U-15" target="shYAM1ni_3eM_hc4Qe-U-17" edge="1">
                    <mxGeometry width="160" relative="1" as="geometry">
                        <mxPoint x="470" y="200" as="sourcePoint"/>
                        <mxPoint x="630" y="200" as="targetPoint"/>
                    </mxGeometry>
                </mxCell>
                <mxCell id="shYAM1ni_3eM_hc4Qe-U-19" value="" style="endArrow=open;endFill=1;endSize=12;html=1;rounded=0;exitX=-0.037;exitY=0.475;exitDx=0;exitDy=0;exitPerimeter=0;" parent="1" source="shYAM1ni_3eM_hc4Qe-U-17" target="shYAM1ni_3eM_hc4Qe-U-20" edge="1">
                    <mxGeometry width="160" relative="1" as="geometry">
                        <mxPoint x="460" y="360" as="sourcePoint"/>
                        <mxPoint x="550" y="330" as="targetPoint"/>
                    </mxGeometry>
                </mxCell>
                <mxCell id="shYAM1ni_3eM_hc4Qe-U-20" value="注文履歴を選択する" style="ellipse;shape=umlControl;whiteSpace=wrap;html=1;" parent="1" vertex="1">
                    <mxGeometry x="515" y="320" width="70" height="80" as="geometry"/>
                </mxCell>
                <mxCell id="shYAM1ni_3eM_hc4Qe-U-21" value="" style="endArrow=open;endFill=1;endSize=12;html=1;rounded=0;exitX=0.038;exitY=0.633;exitDx=0;exitDy=0;exitPerimeter=0;entryX=0.993;entryY=0.508;entryDx=0;entryDy=0;entryPerimeter=0;" parent="1" source="shYAM1ni_3eM_hc4Qe-U-20" target="shYAM1ni_3eM_hc4Qe-U-22" edge="1">
                    <mxGeometry width="160" relative="1" as="geometry">
                        <mxPoint x="480" y="200" as="sourcePoint"/>
                        <mxPoint x="440" y="350" as="targetPoint"/>
                    </mxGeometry>
                </mxCell>
                <mxCell id="shYAM1ni_3eM_hc4Qe-U-22" value="注文詳細画面" style="shape=umlBoundary;whiteSpace=wrap;html=1;" parent="1" vertex="1">
                    <mxGeometry x="350" y="330" width="100" height="80" as="geometry"/>
                </mxCell>
                <mxCell id="2" value="注文履歴ボタンを選択" style="ellipse;shape=umlControl;whiteSpace=wrap;html=1;" vertex="1" parent="1">
                    <mxGeometry x="410" y="110" width="70" height="80" as="geometry"/>
                </mxCell>
                <mxCell id="3" style="edgeStyle=none;html=1;entryX=0;entryY=0.517;entryDx=0;entryDy=0;entryPerimeter=0;" edge="1" parent="1" source="2" target="shYAM1ni_3eM_hc4Qe-U-8">
                    <mxGeometry relative="1" as="geometry"/>
                </mxCell>
                <mxCell id="4" value="" style="endArrow=classic;html=1;exitX=0.5;exitY=0.5;exitDx=0;exitDy=0;exitPerimeter=0;entryX=0;entryY=0.5;entryDx=0;entryDy=0;entryPerimeter=0;" edge="1" parent="1" source="shYAM1ni_3eM_hc4Qe-U-1" target="shYAM1ni_3eM_hc4Qe-U-6">
                    <mxGeometry width="50" height="50" relative="1" as="geometry">
                        <mxPoint x="250" y="260" as="sourcePoint"/>
                        <mxPoint x="300" y="210" as="targetPoint"/>
                    </mxGeometry>
                </mxCell>
                <mxCell id="5" value="" style="endArrow=classic;html=1;exitX=0.98;exitY=0.6;exitDx=0;exitDy=0;exitPerimeter=0;entryX=0;entryY=0.625;entryDx=0;entryDy=0;entryPerimeter=0;" edge="1" parent="1" source="shYAM1ni_3eM_hc4Qe-U-6" target="2">
                    <mxGeometry width="50" height="50" relative="1" as="geometry">
                        <mxPoint x="390" y="240" as="sourcePoint"/>
                        <mxPoint x="440" y="190" as="targetPoint"/>
                    </mxGeometry>
                </mxCell>
                <mxCell id="6" value="履歴がある場合" style="text;html=1;align=center;verticalAlign=middle;resizable=0;points=[];autosize=1;strokeColor=none;fillColor=none;" vertex="1" parent="1">
                    <mxGeometry x="630" y="80" width="110" height="30" as="geometry"/>
                </mxCell>
                <mxCell id="7" value="保存" style="text;html=1;align=center;verticalAlign=middle;resizable=0;points=[];autosize=1;strokeColor=none;fillColor=none;" vertex="1" parent="1">
                    <mxGeometry x="460" y="370" width="50" height="30" as="geometry"/>
                </mxCell>
                <mxCell id="12" value="エラーメッセージを表示" style="shape=umlBoundary;whiteSpace=wrap;html=1;" vertex="1" parent="1">
                    <mxGeometry x="430.00000000000006" y="240" width="100" height="80" as="geometry"/>
                </mxCell>
                <mxCell id="13" value="履歴がないため別画面に遷移" style="ellipse;shape=umlControl;whiteSpace=wrap;html=1;" vertex="1" parent="1">
                    <mxGeometry x="500" y="140" width="70" height="80" as="geometry"/>
                </mxCell>
                <mxCell id="14" style="edgeStyle=none;html=1;entryX=0.83;entryY=0.058;entryDx=0;entryDy=0;entryPerimeter=0;" edge="1" parent="1" source="13" target="12">
                    <mxGeometry relative="1" as="geometry"/>
                </mxCell>
            </root>
        </mxGraphModel>
    </diagram>
</mxfile>